<svg width="19" height="20" viewBox="0 0 19 20" fill="none" xmlns="http://www.w3.org/2000/svg">
<path d="M9.41763 0.3125C4.42042 0.3125 0.371582 4.64844 0.371582 10C0.371582 15.3516 4.42042 19.6875 9.41763 19.6875C14.4148 19.6875 18.4637 15.3516 18.4637 10C18.4637 4.64844 14.4148 0.3125 9.41763 0.3125ZM12.7913 12.5391L12.0618 13.5156C12.0139 13.5797 11.9547 13.6331 11.8876 13.6727C11.8204 13.7123 11.7467 13.7373 11.6705 13.7464C11.5943 13.7555 11.5172 13.7484 11.4436 13.7255C11.37 13.7027 11.3013 13.6646 11.2414 13.6133L8.79754 11.6711C8.62678 11.5247 8.48895 11.339 8.39424 11.1279C8.29953 10.9167 8.25037 10.6854 8.2504 10.4512V4.375C8.2504 4.20924 8.31189 4.05027 8.42134 3.93306C8.53079 3.81585 8.67923 3.75 8.83402 3.75H10.0013C10.156 3.75 10.3045 3.81585 10.4139 3.93306C10.5234 4.05027 10.5849 4.20924 10.5849 4.375V10L12.7005 11.6602C12.7604 11.7115 12.8102 11.7749 12.8472 11.8468C12.8842 11.9188 12.9075 11.9978 12.916 12.0795C12.9244 12.1611 12.9177 12.2437 12.8963 12.3225C12.875 12.4014 12.8393 12.475 12.7913 12.5391Z" fill="#A6A5B5"/>
</svg>
